<svg width="40" height="40" viewBox="0 0 40 40" fill="none" xmlns="http://www.w3.org/2000/svg">
<rect width="40" height="40" fill="#116A7B"/>
<rect x="2" y="2" width="36" height="36" fill="#116A7B"/>
<path d="M4.94164 4.52783C4.53806 4.85069 4.45353 5.99789 4.44134 6.47343C4.42074 7.27668 4.48623 8.06039 4.56178 8.85911C4.73969 10.7399 4.50534 12.6263 4.85825 14.4967C5.00719 15.2861 5.00823 16.0916 5.1084 16.887C5.24496 17.9715 5.35883 19.0317 5.40024 20.1251C5.45488 21.5675 5.56475 22.9814 5.61333 24.4147C5.65907 25.764 5.69208 27.106 5.69208 28.4587C5.69208 29.2413 5.35855 29.9489 5.35855 30.7101C5.35855 31.1793 5.20434 31.9216 5.44193 32.3129C5.56465 32.515 5.67869 32.7563 5.81252 32.9475C6.03514 33.2655 5.93079 32.5722 5.94223 32.3777" stroke="white" stroke-width="3" stroke-linecap="round"/>
<path d="M5.69141 19.1198C8.87694 19.1198 12.0625 19.1198 15.248 19.1198C15.8909 19.1198 16.4714 18.8696 17.1149 18.8696" stroke="white" stroke-width="3" stroke-linecap="round"/>
<path d="M16.5312 4.36133C16.5312 6.79982 16.4939 9.23676 16.6516 11.6712C16.7716 13.5213 16.8647 15.3859 16.8647 17.2394C16.8647 18.8036 16.698 20.3498 16.698 21.9134C16.698 23.2306 16.698 24.5477 16.698 25.8649C16.698 27.4834 16.7875 29.1528 16.6192 30.752C16.5897 31.032 16.5549 31.4618 16.6794 31.7109C17.0102 32.3724 17.2375 32.2946 17.9487 32.2946" stroke="white" stroke-width="3" stroke-linecap="round"/>
<path d="M31.5634 6.53223C30.3437 6.69484 29.2331 7.39903 28.1385 7.90837C27.2225 8.33464 26.3601 8.8117 25.5156 9.36728C24.6455 9.93974 23.7447 10.4685 22.8823 11.0435C22.781 11.111 22.4439 11.3413 22.4063 11.447C22.2974 11.754 25.1721 12.6489 25.4069 12.73C26.42 13.0799 27.4496 13.3344 28.4696 13.6509C28.8031 13.7544 29.1065 13.982 29.4629 13.982C30.6634 13.982 32.052 14.3428 33.2396 14.5407" stroke="white" stroke-width="3" stroke-linecap="round"/>
<path d="M32.4014 6.81152C32.3078 8.12159 32.0289 9.38944 32.0289 10.7123C32.0289 11.6797 32.0289 12.6472 32.0289 13.6146C32.0289 15.9906 31.9933 18.4075 32.2617 20.7695C32.5223 23.063 32.4014 25.4171 32.4014 27.7226C32.4014 28.9509 32.4945 30.1645 32.4945 31.3958" stroke="white" stroke-width="3" stroke-linecap="round"/>
</svg>
